<svg xmlns="http://www.w3.org/2000/svg" width="240" height="160" viewBox="0 0 240 160">
  <rect width="240" height="160" fill="#b22234"/>
  <g fill="#fff">
    <rect y="12" width="240" height="12"/>
    <rect y="36" width="240" height="12"/>
    <rect y="60" width="240" height="12"/>
    <rect y="84" width="240" height="12"/>
    <rect y="108" width="240" height="12"/>
    <rect y="132" width="240" height="12"/>
  </g>
  <rect width="96" height="84" fill="#3c3b6e"/>
  <g fill="#fff">
    <circle cx="12" cy="12" r="2.6"/>
    <circle cx="28" cy="12" r="2.6"/>
    <circle cx="44" cy="12" r="2.6"/>
    <circle cx="60" cy="12" r="2.6"/>
    <circle cx="76" cy="12" r="2.6"/>

    <circle cx="20" cy="26" r="2.6"/>
    <circle cx="36" cy="26" r="2.6"/>
    <circle cx="52" cy="26" r="2.6"/>
    <circle cx="68" cy="26" r="2.6"/>
    <circle cx="84" cy="26" r="2.6"/>

    <circle cx="12" cy="40" r="2.6"/>
    <circle cx="28" cy="40" r="2.6"/>
    <circle cx="44" cy="40" r="2.6"/>
    <circle cx="60" cy="40" r="2.6"/>
    <circle cx="76" cy="40" r="2.6"/>

    <circle cx="20" cy="54" r="2.6"/>
    <circle cx="36" cy="54" r="2.6"/>
    <circle cx="52" cy="54" r="2.6"/>
    <circle cx="68" cy="54" r="2.6"/>
    <circle cx="84" cy="54" r="2.6"/>

    <circle cx="12" cy="68" r="2.6"/>
    <circle cx="28" cy="68" r="2.6"/>
    <circle cx="44" cy="68" r="2.6"/>
    <circle cx="60" cy="68" r="2.6"/>
    <circle cx="76" cy="68" r="2.6"/>
  </g>
</svg>
