<svg xmlns="http://www.w3.org/2000/svg" width="240" height="160" viewBox="0 0 240 160">
  <rect width="240" height="160" fill="#ffffff"/>
  <rect width="240" height="80" fill="#002776"/>
  <path d="M60 80 A60 60 0 0 1 180 80" fill="none" stroke="#f8c300" stroke-width="10"/>
  <path d="M70 80 A50 50 0 0 1 170 80" fill="none" stroke="#00a650" stroke-width="8"/>
  <path d="M80 80 A40 40 0 0 1 160 80" fill="none" stroke="#ea1d25" stroke-width="6"/>
  <circle cx="120" cy="60" r="10" fill="#f8c300"/>
  <path d="M120 88 l0 40" stroke="#ea1d25" stroke-width="8"/>
  <path d="M102 108 l36 0" stroke="#ea1d25" stroke-width="8"/>
  <polygon points="120,22 124,34 136,34 126,42 130,54 120,46 110,54 114,42 104,34 116,34" fill="#f8c300"/>
</svg>
